<svg width="177" height="56" viewBox="0 0 177 56" fill="none" xmlns="http://www.w3.org/2000/svg">
<path fill-rule="evenodd" clip-rule="evenodd" d="M2.14273 17.3769C0.766139 20.7003 0.0396534 24.2559 0.00157858 27.851H0C0 27.9007 0.000131578 27.9504 0.000394634 28.0001C0.000131578 28.0498 0 28.0994 0 28.1491H0.00157858C0.0396534 31.7443 0.766138 35.2998 2.14272 38.6232C3.55735 42.0384 5.6308 45.1416 8.24469 47.7555C10.8586 50.3693 13.9617 52.4428 17.3769 53.8574C20.7921 55.272 24.4525 56.0001 28.1491 56.0001C31.8457 56.0001 35.5061 55.272 38.9213 53.8574C42.3366 52.4428 45.4397 50.3693 48.0536 47.7555C50.6675 45.1416 52.7409 42.0384 54.1555 38.6232C55.5321 35.2998 56.2586 31.7443 56.2967 28.1491H56.2983C56.2983 28.0994 56.2981 28.0498 56.2979 28.0001C56.2981 27.9504 56.2983 27.9007 56.2983 27.851H56.2967C56.2586 24.2559 55.5321 20.7003 54.1555 17.3769C52.7409 13.9617 50.6675 10.8586 48.0536 8.24469C45.4397 5.6308 42.3366 3.55735 38.9213 2.14273C35.5061 0.728099 31.8457 0 28.1491 0C24.4525 0 20.7921 0.728099 17.3769 2.14272C13.9617 3.55735 10.8586 5.6308 8.24469 8.24469C5.6308 10.8586 3.55735 13.9617 2.14273 17.3769ZM6.57243 36.7884C5.41777 34.0008 4.8144 31.0163 4.79515 28.0001C4.8144 24.9838 5.41777 21.9993 6.57243 19.2118C7.7461 16.3783 9.46637 13.8037 11.635 11.635C13.8037 9.46637 16.3783 7.7461 19.2118 6.57243C22.0453 5.39875 25.0822 4.79467 28.1491 4.79467C31.2161 4.79467 34.253 5.39876 37.0865 6.57243C39.92 7.7461 42.4946 9.46638 44.6632 11.635C46.8319 13.8037 48.5522 16.3783 49.7258 19.2118C50.8805 21.9994 51.4839 24.9838 51.5031 28.0001C51.4839 31.0163 50.8805 34.0008 49.7258 36.7884C48.5522 39.6219 46.8319 42.1964 44.6632 44.3651C42.4946 46.5338 39.92 48.2541 37.0865 49.4277C34.253 50.6014 31.2161 51.2055 28.1491 51.2055C25.0822 51.2055 22.0453 50.6014 19.2118 49.4277C16.3783 48.2541 13.8037 46.5338 11.635 44.3651C9.46637 42.1964 7.7461 39.6219 6.57243 36.7884ZM24.8308 25.8198L35.6968 16.4142C35.871 16.2635 36.121 16.4755 36.0008 16.672L30.5846 25.5213C30.8257 25.6147 31.0565 25.7471 31.2677 25.9195C32.3462 26.7996 32.5071 28.3874 31.627 29.4659C31.4663 29.6629 31.282 29.8293 31.0814 29.9643L20.4643 39.6502C20.2941 39.8055 20.0386 39.6001 20.1537 39.4005L25.3806 30.3378C25.0803 30.2371 24.7941 30.0778 24.5391 29.8584C23.4839 28.9505 23.3645 27.3591 24.2724 26.3038C24.4382 26.1111 24.6268 25.9496 24.8308 25.8198ZM16.6077 25.0659C16.5761 24.6703 16.4277 24.3617 16.1626 24.1402C15.9015 23.9186 15.504 23.8079 14.9699 23.8079C14.6297 23.8079 14.3507 23.8494 14.1332 23.9325C13.9195 24.0116 13.7613 24.1204 13.6584 24.2589C13.5556 24.3973 13.5022 24.5556 13.4982 24.7336C13.4903 24.88 13.516 25.0125 13.5754 25.1312C13.6387 25.2459 13.7376 25.3507 13.8721 25.4457C14.0066 25.5367 14.1787 25.6198 14.3883 25.6949C14.598 25.7701 14.8472 25.8373 15.136 25.8967L16.133 26.1103C16.8055 26.2527 17.3811 26.4406 17.8598 26.6741C18.3385 26.9075 18.7301 27.1824 19.0348 27.4989C19.3394 27.8114 19.5629 28.1635 19.7053 28.5552C19.8517 28.9468 19.9269 29.3741 19.9308 29.837C19.9269 30.6361 19.7271 31.3126 19.3315 31.8664C18.9359 32.4203 18.3701 32.8416 17.6343 33.1304C16.9024 33.4192 16.0222 33.5636 14.9936 33.5636C13.9373 33.5636 13.0156 33.4073 12.2283 33.0948C11.445 32.7823 10.8358 32.3016 10.4006 31.6528C9.96937 31 9.75179 30.1653 9.74783 29.1486H12.8811C12.9008 29.5205 12.9938 29.833 13.16 30.0862C13.3261 30.3394 13.5595 30.5313 13.8602 30.6618C14.1648 30.7924 14.5268 30.8576 14.9461 30.8576C15.2982 30.8576 15.593 30.8141 15.8303 30.7271C16.0677 30.64 16.2477 30.5194 16.3703 30.3651C16.493 30.2108 16.5563 30.0348 16.5602 29.837C16.5563 29.651 16.495 29.4888 16.3763 29.3504C16.2615 29.2079 16.0717 29.0813 15.8066 28.9706C15.5415 28.8558 15.1835 28.749 14.7325 28.6501L13.5219 28.389C12.4459 28.1556 11.5973 27.7659 10.9762 27.22C10.359 26.6701 10.0525 25.9204 10.0564 24.971C10.0525 24.1995 10.2582 23.525 10.6736 22.9474C11.0929 22.3659 11.6725 21.9129 12.4123 21.5885C13.156 21.2641 14.0085 21.1019 14.9699 21.1019C15.951 21.1019 16.7996 21.2661 17.5156 21.5944C18.2317 21.9228 18.7836 22.3857 19.1713 22.983C19.5629 23.5764 19.7607 24.2707 19.7647 25.0659H16.6077ZM37.5988 21.2678V33.4209H46.3339V30.7624H40.8982V28.6736H45.9067V26.0151H40.8982V23.9263H46.3576V21.2678H37.5988Z" fill="#00C693"/>
<path d="M70.3239 24.7102C70.2784 24.2519 70.0833 23.8958 69.7386 23.642C69.3939 23.3883 68.9261 23.2614 68.3352 23.2614C67.9337 23.2614 67.5947 23.3182 67.3182 23.4318C67.0417 23.5417 66.8295 23.6951 66.6818 23.892C66.5379 24.089 66.4659 24.3125 66.4659 24.5625C66.4583 24.7708 66.5019 24.9527 66.5966 25.108C66.6951 25.2633 66.8295 25.3977 67 25.5114C67.1705 25.6212 67.3674 25.7178 67.5909 25.8011C67.8144 25.8807 68.053 25.9489 68.3068 26.0057L69.3523 26.2557C69.8598 26.3693 70.3258 26.5208 70.75 26.7102C71.1742 26.8996 71.5417 27.1326 71.8523 27.4091C72.1629 27.6856 72.4034 28.0114 72.5739 28.3864C72.7481 28.7614 72.8371 29.1913 72.8409 29.6761C72.8371 30.3883 72.6553 31.0057 72.2955 31.5284C71.9394 32.0473 71.4242 32.4508 70.75 32.7386C70.0795 33.0227 69.2708 33.1648 68.3239 33.1648C67.3845 33.1648 66.5663 33.0208 65.8693 32.733C65.1761 32.4451 64.6345 32.0189 64.2443 31.4545C63.858 30.8864 63.6553 30.1837 63.6364 29.3466H66.017C66.0436 29.7367 66.1553 30.0625 66.3523 30.3239C66.553 30.5814 66.8201 30.7765 67.1534 30.9091C67.4905 31.0379 67.8712 31.1023 68.2955 31.1023C68.7121 31.1023 69.0739 31.0417 69.3807 30.9205C69.6913 30.7992 69.9318 30.6307 70.1023 30.4148C70.2727 30.1989 70.358 29.9508 70.358 29.6705C70.358 29.4091 70.2803 29.1894 70.125 29.0114C69.9735 28.8333 69.75 28.6818 69.4545 28.5568C69.1629 28.4318 68.8049 28.3182 68.3807 28.2159L67.1136 27.8977C66.1326 27.6591 65.358 27.286 64.7898 26.7784C64.2216 26.2708 63.9394 25.5871 63.9432 24.7273C63.9394 24.0227 64.1269 23.4072 64.5057 22.8807C64.8883 22.3542 65.4129 21.9432 66.0795 21.6477C66.7462 21.3523 67.5038 21.2045 68.3523 21.2045C69.2159 21.2045 69.9697 21.3523 70.6136 21.6477C71.2614 21.9432 71.7652 22.3542 72.125 22.8807C72.4848 23.4072 72.6705 24.017 72.6818 24.7102H70.3239ZM78.8735 33.1705C77.9795 33.1705 77.2106 32.9811 76.5666 32.6023C75.9265 32.2197 75.4341 31.6894 75.0894 31.0114C74.7485 30.3333 74.578 29.553 74.578 28.6705C74.578 27.7765 74.7504 26.9924 75.0951 26.3182C75.4435 25.6402 75.9379 25.1117 76.578 24.733C77.2182 24.3504 77.9795 24.1591 78.8621 24.1591C79.6235 24.1591 80.2901 24.2973 80.8621 24.5739C81.4341 24.8504 81.8867 25.2386 82.2201 25.7386C82.5534 26.2386 82.7371 26.8258 82.7712 27.5H80.4871C80.4227 27.0644 80.2523 26.714 79.9757 26.4489C79.703 26.1799 79.3451 26.0455 78.9019 26.0455C78.5269 26.0455 78.1992 26.1477 77.9189 26.3523C77.6424 26.553 77.4265 26.8466 77.2712 27.233C77.1159 27.6193 77.0382 28.0871 77.0382 28.6364C77.0382 29.1932 77.114 29.6667 77.2655 30.0568C77.4208 30.447 77.6386 30.7443 77.9189 30.9489C78.1992 31.1534 78.5269 31.2557 78.9019 31.2557C79.1784 31.2557 79.4265 31.1989 79.6462 31.0852C79.8697 30.9716 80.0534 30.8068 80.1973 30.5909C80.3451 30.3712 80.4416 30.108 80.4871 29.8011H82.7712C82.7333 30.4678 82.5515 31.0549 82.2257 31.5625C81.9038 32.0663 81.4587 32.4602 80.8905 32.7443C80.3223 33.0284 79.65 33.1705 78.8735 33.1705ZM88.7441 33.1705C87.8615 33.1705 87.0983 32.983 86.4543 32.608C85.8142 32.2292 85.3198 31.7027 84.9714 31.0284C84.6229 30.3504 84.4486 29.5644 84.4486 28.6705C84.4486 27.7689 84.6229 26.9811 84.9714 26.3068C85.3198 25.6288 85.8142 25.1023 86.4543 24.7273C87.0983 24.3485 87.8615 24.1591 88.7441 24.1591C89.6267 24.1591 90.388 24.3485 91.0282 24.7273C91.6721 25.1023 92.1683 25.6288 92.5168 26.3068C92.8653 26.9811 93.0395 27.7689 93.0395 28.6705C93.0395 29.5644 92.8653 30.3504 92.5168 31.0284C92.1683 31.7027 91.6721 32.2292 91.0282 32.608C90.388 32.983 89.6267 33.1705 88.7441 33.1705ZM88.7555 31.2955C89.157 31.2955 89.4922 31.1818 89.7611 30.9545C90.0301 30.7235 90.2327 30.4091 90.3691 30.0114C90.5092 29.6136 90.5793 29.161 90.5793 28.6534C90.5793 28.1458 90.5092 27.6932 90.3691 27.2955C90.2327 26.8977 90.0301 26.5833 89.7611 26.3523C89.4922 26.1212 89.157 26.0057 88.7555 26.0057C88.3502 26.0057 88.0092 26.1212 87.7327 26.3523C87.46 26.5833 87.2536 26.8977 87.1134 27.2955C86.977 27.6932 86.9089 28.1458 86.9089 28.6534C86.9089 29.161 86.977 29.6136 87.1134 30.0114C87.2536 30.4091 87.46 30.7235 87.7327 30.9545C88.0092 31.1818 88.3502 31.2955 88.7555 31.2955ZM95.0934 33V24.2727H97.44V25.7955H97.5309C97.69 25.2538 97.957 24.8447 98.332 24.5682C98.707 24.2879 99.1389 24.1477 99.6275 24.1477C99.7487 24.1477 99.8794 24.1553 100.02 24.1705C100.16 24.1856 100.283 24.2064 100.389 24.233V26.3807C100.275 26.3466 100.118 26.3163 99.9173 26.2898C99.7165 26.2633 99.5328 26.25 99.3661 26.25C99.0101 26.25 98.6919 26.3277 98.4116 26.483C98.1351 26.6345 97.9154 26.8466 97.7525 27.1193C97.5934 27.392 97.5139 27.7064 97.5139 28.0625V33H95.0934ZM105.691 33.1705C104.794 33.1705 104.021 32.9886 103.373 32.625C102.729 32.2576 102.233 31.7386 101.884 31.0682C101.536 30.3939 101.362 29.5966 101.362 28.6761C101.362 27.7784 101.536 26.9905 101.884 26.3125C102.233 25.6345 102.724 25.1061 103.356 24.7273C103.992 24.3485 104.739 24.1591 105.595 24.1591C106.17 24.1591 106.706 24.2519 107.203 24.4375C107.703 24.6193 108.138 24.8939 108.509 25.2614C108.884 25.6288 109.176 26.0909 109.384 26.6477C109.593 27.2008 109.697 27.8485 109.697 28.5909V29.2557H102.328V27.7557H107.419C107.419 27.4072 107.343 27.0985 107.191 26.8295C107.04 26.5606 106.83 26.3504 106.561 26.1989C106.295 26.0436 105.987 25.9659 105.634 25.9659C105.267 25.9659 104.941 26.0511 104.657 26.2216C104.377 26.3883 104.157 26.6136 103.998 26.8977C103.839 27.178 103.758 27.4905 103.754 27.8352V29.2614C103.754 29.6932 103.833 30.0663 103.992 30.3807C104.155 30.6951 104.384 30.9375 104.68 31.108C104.975 31.2784 105.326 31.3636 105.731 31.3636C106 31.3636 106.246 31.3258 106.47 31.25C106.693 31.1742 106.884 31.0606 107.044 30.9091C107.203 30.7576 107.324 30.572 107.407 30.3523L109.646 30.5C109.532 31.0379 109.299 31.5076 108.947 31.9091C108.599 32.3068 108.148 32.6174 107.595 32.8409C107.045 33.0606 106.411 33.1705 105.691 33.1705ZM111.802 33V21.3636H119.643V23.392H114.262V26.1648H119.239V28.1932H114.262V30.9716H119.666V33H111.802ZM124.454 27.9545V33H122.033V24.2727H124.34V25.8125H124.443C124.636 25.3049 124.96 24.9034 125.414 24.608C125.869 24.3087 126.42 24.1591 127.068 24.1591C127.674 24.1591 128.202 24.2917 128.653 24.5568C129.103 24.822 129.454 25.2008 129.704 25.6932C129.954 26.1818 130.079 26.7652 130.079 27.4432V33H127.658V27.875C127.662 27.3409 127.526 26.9242 127.249 26.625C126.973 26.322 126.592 26.1705 126.107 26.1705C125.782 26.1705 125.494 26.2405 125.244 26.3807C124.997 26.5208 124.804 26.7254 124.664 26.9943C124.528 27.2595 124.458 27.5795 124.454 27.9545ZM136.444 33.1705C135.546 33.1705 134.773 32.9886 134.126 32.625C133.482 32.2576 132.985 31.7386 132.637 31.0682C132.289 30.3939 132.114 29.5966 132.114 28.6761C132.114 27.7784 132.289 26.9905 132.637 26.3125C132.985 25.6345 133.476 25.1061 134.109 24.7273C134.745 24.3485 135.491 24.1591 136.347 24.1591C136.923 24.1591 137.459 24.2519 137.955 24.4375C138.455 24.6193 138.891 24.8939 139.262 25.2614C139.637 25.6288 139.929 26.0909 140.137 26.6477C140.345 27.2008 140.449 27.8485 140.449 28.5909V29.2557H133.08V27.7557H138.171C138.171 27.4072 138.095 27.0985 137.944 26.8295C137.792 26.5606 137.582 26.3504 137.313 26.1989C137.048 26.0436 136.739 25.9659 136.387 25.9659C136.02 25.9659 135.694 26.0511 135.41 26.2216C135.129 26.3883 134.91 26.6136 134.751 26.8977C134.592 27.178 134.51 27.4905 134.506 27.8352V29.2614C134.506 29.6932 134.586 30.0663 134.745 30.3807C134.908 30.6951 135.137 30.9375 135.432 31.108C135.728 31.2784 136.078 31.3636 136.484 31.3636C136.753 31.3636 136.999 31.3258 137.222 31.25C137.446 31.1742 137.637 31.0606 137.796 30.9091C137.955 30.7576 138.076 30.572 138.16 30.3523L140.398 30.5C140.285 31.0379 140.052 31.5076 139.699 31.9091C139.351 32.3068 138.9 32.6174 138.347 32.8409C137.798 33.0606 137.164 33.1705 136.444 33.1705ZM142.509 33V24.2727H144.856V25.7955H144.947C145.106 25.2538 145.373 24.8447 145.748 24.5682C146.123 24.2879 146.554 24.1477 147.043 24.1477C147.164 24.1477 147.295 24.1553 147.435 24.1705C147.575 24.1856 147.698 24.2064 147.804 24.233V26.3807C147.691 26.3466 147.534 26.3163 147.333 26.2898C147.132 26.2633 146.948 26.25 146.782 26.25C146.426 26.25 146.108 26.3277 145.827 26.483C145.551 26.6345 145.331 26.8466 145.168 27.1193C145.009 27.392 144.929 27.7064 144.929 28.0625V33H142.509ZM153.061 36.4545C152.277 36.4545 151.605 36.3466 151.044 36.1307C150.488 35.9186 150.044 35.6288 149.715 35.2614C149.385 34.8939 149.171 34.4811 149.073 34.0227L151.311 33.7216C151.38 33.8958 151.488 34.0587 151.635 34.2102C151.783 34.3617 151.978 34.483 152.221 34.5739C152.467 34.6686 152.766 34.7159 153.118 34.7159C153.645 34.7159 154.079 34.5871 154.419 34.3295C154.764 34.0758 154.936 33.6496 154.936 33.0511V31.4545H154.834C154.728 31.697 154.569 31.9261 154.357 32.142C154.145 32.358 153.872 32.5341 153.539 32.6705C153.205 32.8068 152.808 32.875 152.346 32.875C151.69 32.875 151.094 32.7235 150.556 32.4205C150.022 32.1136 149.596 31.6458 149.277 31.017C148.963 30.3845 148.806 29.5852 148.806 28.6193C148.806 27.6307 148.967 26.8049 149.289 26.142C149.611 25.4792 150.039 24.983 150.573 24.6534C151.111 24.3239 151.7 24.1591 152.34 24.1591C152.829 24.1591 153.238 24.2424 153.567 24.4091C153.897 24.572 154.162 24.7765 154.363 25.0227C154.567 25.2652 154.724 25.5038 154.834 25.7386H154.925V24.2727H157.329V33.0852C157.329 33.8277 157.147 34.4489 156.783 34.9489C156.419 35.4489 155.916 35.8239 155.272 36.0739C154.632 36.3277 153.895 36.4545 153.061 36.4545ZM153.113 31.0568C153.503 31.0568 153.832 30.9602 154.101 30.767C154.374 30.5701 154.582 30.2898 154.726 29.9261C154.874 29.5587 154.948 29.1193 154.948 28.608C154.948 28.0966 154.876 27.6534 154.732 27.2784C154.588 26.8996 154.38 26.6061 154.107 26.3977C153.834 26.1894 153.503 26.0852 153.113 26.0852C152.715 26.0852 152.38 26.1932 152.107 26.4091C151.834 26.6212 151.628 26.9167 151.488 27.2955C151.347 27.6742 151.277 28.1117 151.277 28.608C151.277 29.1117 151.347 29.5473 151.488 29.9148C151.632 30.2784 151.838 30.5606 152.107 30.7614C152.38 30.9583 152.715 31.0568 153.113 31.0568ZM161.229 36.2727C160.922 36.2727 160.634 36.2481 160.365 36.1989C160.1 36.1534 159.88 36.0947 159.706 36.0227L160.252 34.2159C160.536 34.303 160.791 34.3504 161.019 34.358C161.25 34.3655 161.449 34.3125 161.615 34.1989C161.786 34.0852 161.924 33.892 162.03 33.6193L162.172 33.25L159.041 24.2727H161.587L163.394 30.6818H163.485L165.309 24.2727H167.871L164.479 33.9432C164.316 34.4129 164.095 34.822 163.814 35.1705C163.538 35.5227 163.187 35.7936 162.763 35.983C162.339 36.1761 161.827 36.2727 161.229 36.2727Z" fill="#D9D9D9"/>
</svg>
